<svg width="16" height="16" viewBox="0 0 16 16" fill="none" xmlns="http://www.w3.org/2000/svg">
<path d="M7.19217 14.4941L7.19147 14.4934C5.12212 12.4482 3.44283 10.7875 2.27491 9.23122C1.11368 7.68384 0.5 6.29291 0.5 4.79564C0.5 2.34483 2.2518 0.5 4.4 0.5C5.62381 0.5 6.81961 1.12367 7.606 2.13018L8 2.63446L8.394 2.13018C9.18039 1.12367 10.3762 0.5 11.6 0.5C13.7482 0.5 15.5 2.34483 15.5 4.79564C15.5 6.29291 14.8863 7.68387 13.725 9.23244C12.5582 10.7883 10.8812 12.4493 8.81473 14.496L8.80919 14.5015L8.80815 14.5025L8.00134 15.297L7.19217 14.4941Z" stroke="white"/>
</svg>
