<svg width="108" height="40" viewBox="0 0 108 40" fill="none" xmlns="http://www.w3.org/2000/svg">
<g clip-path="url(#clip0_25_32)">
<path d="M81.9565 4.10596C80.1886 6.30464 78.2096 8.68874 76.6792 10.5695C77.3917 7.25828 78.2096 3.78808 78.6318 2.25166C76.2043 2.56954 73.3809 3.12583 71.8769 3.60265C71.1644 4.76821 70.5839 5.74834 70.109 6.62252L69.5021 6.78146C65.4913 13.5364 61.5334 20.8477 59.1058 25.9338C58.8683 26.1192 58.6045 26.3046 58.3142 26.4636L58.3406 23.947L58.4461 17.1921C59.9238 16.4238 61.3487 15.5232 62.668 14.5166C64.647 12.9801 66.2302 11.7616 67.2856 9.69536C67.9189 8.45033 68.3411 6.99338 68.4202 5.72185C68.5522 3.81457 67.9717 2.25166 66.7843 1.21854C66.0455 0.582781 65.0692 0.18543 63.9609 0.0529801C63.6971 0.0264901 63.4332 0 63.1957 0C62.8263 0 62.5097 0.0264901 62.3777 0.0529801C61.6917 0.15894 61.0056 0.397351 60.3724 0.741722C59.8446 0.741722 59.4752 0.794702 59.4224 0.821192C54.8312 1.69536 52.905 8.18543 52.905 8.2649C52.5883 9.61589 52.4564 10.9669 52.5092 12.4503C51.9551 12.6623 51.4273 12.9007 50.8996 13.1656C51.0315 12.4768 51.1107 11.8146 51.1107 11.2053C51.1107 7.49669 48.7623 5.08609 45.1209 5.16556C41.1102 5.19205 36.8356 8.13245 33.9594 12.8742C33.0095 13.8808 32.1652 15.0728 31.4 16.4238C32.9831 13.1126 34.8038 9.56291 36.8356 5.88079C33.4317 5.96027 30.5556 6.22517 29.1835 6.59603C28.7349 7.49669 28.3127 8.45033 27.8378 9.37748L27.0989 9.53642C22.9035 18.1457 20.2121 24.7947 18.4178 30.8874C20.5287 30.543 22.2438 30.0927 23.8006 29.5099C23.959 29.0596 24.0645 28.7417 24.2756 28.2649C25.0408 28.053 25.8324 27.7881 26.7032 27.4437C27.5211 25.1656 28.5766 22.5695 29.8431 19.7881C29.6321 20.3179 29.4474 20.8742 29.289 21.4305C28.8141 22.9139 28.5766 24.2914 28.5766 25.457C28.5766 28.6093 30.45 30.5166 33.59 30.5166C34.2761 30.5166 35.0149 30.4106 35.7537 30.2252C36.4398 30.0132 36.9939 29.7748 37.4425 29.5364L38.1549 32.5298C39.7117 32.2649 41.4532 32.3179 42.5351 31.0993L42.324 30.1722C43.8808 29.9338 44.8571 29.5364 45.7014 28.7152C47.0735 29.8278 48.6303 30.596 49.8441 30.9934C50.5302 31.2318 51.2426 31.3907 51.9814 31.4967C52.087 32.2649 52.1925 33.0066 52.2453 33.7219C52.2717 34.1457 52.2981 34.4901 52.2189 34.9934C52.1925 35.0993 52.1925 35.2053 52.1661 35.3113C51.8495 34.9934 51.3482 34.596 50.583 34.4901H50.5566C50.451 34.4901 50.3455 34.4636 50.2399 34.4636C49.29 34.4636 48.1554 34.9139 47.5749 35.7881C46.9416 36 46.3611 36.4503 46.1764 37.0331C45.9653 37.6689 46.1764 38.2781 46.8361 38.8874C47.3638 39.3907 48.129 39.6821 49.0525 39.7616C49.2109 39.7616 49.3692 39.7881 49.5275 39.7881C49.8969 39.9205 50.2927 40.0265 50.7149 40.053C50.9787 40.0795 51.269 40.106 51.5593 40.106C52.0342 40.106 52.43 40.053 52.6675 40.0265H52.6939C53.1952 39.947 54.7256 39.7351 56.045 38.6225C57.7865 37.1921 58.024 35.3113 58.2614 33.3245C58.3406 32.7947 58.367 32.2649 58.367 31.7616C59.396 31.6291 60.9529 31.2053 62.2722 29.8278C62.6152 29.457 62.9055 29.0861 63.1693 28.6623C63.4068 28.5828 63.6443 28.5298 63.829 28.4503L64.647 26.7815C65.5969 26.5695 66.5996 26.2781 66.969 26.1457L67.1009 25.8808C67.0745 26.755 67.0481 27.8675 67.0481 29.1391C67.8397 28.2914 68.5786 27.5497 69.2646 26.8609V27.7086C71.5866 25.3245 72.9587 23.8675 74.0142 22.755C72.8268 25.457 71.7449 28.0265 71.4811 28.7152C72.6421 28.7947 75.1488 28.4503 77.3389 27.8675L78.2096 26.0927C79.397 25.8543 80.1359 25.6689 80.4525 25.5894C84.7535 16.5033 88.6851 7.07285 89.8197 3.04636C86.7589 3.12583 83.4606 3.60265 81.9565 4.10596ZM25.9907 26.7285C24.6186 27.2583 23.0882 27.6291 21.2148 27.9735C23.0354 22.0132 25.6741 15.5232 29.7112 7.23179C31.1889 6.83444 32.8776 6.6755 35.3052 6.6755C31.1889 14.2252 28.128 20.7682 25.9907 26.7285ZM44.9362 28.1589C44.4877 28.5828 43.9599 28.8477 43.1683 29.0331C42.4823 29.1921 41.7699 29.245 41.0838 29.351L40.3186 26.2517C39.527 26.702 38.9729 26.9404 38.3924 27.0728C37.6536 27.2583 36.9147 27.3642 36.2551 27.3642C33.2998 27.3642 31.5319 25.5894 31.5319 22.543C31.5319 21.404 31.743 20.1325 32.2179 18.649C34.5399 11.2318 39.5534 6.27815 45.0946 5.88079C48.129 5.66887 50.2135 7.84106 50.2135 11.2053C50.2135 11.9205 50.108 12.6887 49.9233 13.4834C45.7806 15.2318 42.7462 18.8079 42.5878 22.6225C42.4823 24.7682 43.485 26.543 44.8571 27.894L44.9362 28.1589ZM61.6917 29.2185C60.0557 30.9139 57.9976 30.9934 57.5754 30.9934C57.6018 31.7086 57.5754 32.4238 57.4698 33.1391C57.2324 35.0728 57.0213 36.7152 55.5172 37.9603C54.3298 38.9404 52.9577 39.1258 52.5092 39.2053C52.2981 39.2318 51.9287 39.2848 51.5065 39.2848C51.269 39.2848 51.0315 39.2848 50.7677 39.2318C49.8441 39.1258 49.1053 38.8079 48.5776 38.2781C47.9707 37.6689 47.7596 37.0331 47.9971 36.3973C48.3137 35.5762 49.3428 35.0728 50.2399 35.0728C50.3191 35.0728 50.3982 35.0728 50.4774 35.0728H50.5038C51.2426 35.1523 51.612 35.6026 51.8495 35.894C52.0342 36.1325 52.1134 36.2119 52.2981 36.2384H52.3772C52.43 36.2384 52.4564 36.2384 52.5092 36.2384C52.8786 36.2384 53.3008 36.0795 53.591 35.8411C53.9077 35.5762 53.9868 35.2583 54.1187 34.5166C54.1979 34.0397 54.1979 33.6689 54.1715 33.2715C54.1451 32.5298 54.066 31.7881 53.9868 31.0199C53.248 30.8874 52.5356 30.702 51.8495 30.4371C49.1053 29.404 44.5668 26.4636 44.9362 21.9603C45.3057 17.4834 49.7386 13.404 55.1478 12.4503C55.1214 11.2848 55.227 10.1987 55.4117 9.13907C55.4117 9.13907 55.5436 8.50331 55.6756 7.94702C56.3616 5.53642 58.6572 2.99338 59.2377 2.35762C59.7391 1.88079 61.1376 0.688742 62.8527 0.662252C63.3013 0.662252 63.7498 0.715232 63.829 0.741722C64.0665 0.794702 65.3594 0.980132 66.2565 1.74834C67.2856 2.62252 67.7606 3.97351 67.655 5.64238C67.5759 6.83444 67.1801 8.18543 66.5996 9.35099C65.5969 11.2848 64.172 12.3709 62.1666 13.9073C60.7682 14.9934 59.2641 15.9205 57.6809 16.7152L57.5754 23.9205L57.5226 27.6026C57.8129 27.4967 58.1295 27.3642 58.4725 27.1788C58.0503 28.106 57.6809 28.9272 57.4171 29.6159C59.0266 29.404 60.7154 29.1126 62.0083 28.7947C61.9292 28.9536 61.7972 29.0861 61.6917 29.2185ZM79.8456 24.7682C79.2123 24.9007 76.2834 25.5894 74.5419 25.5894C75.2016 23.947 76.732 20.4503 78.6318 16.2119C76.6528 18.4901 73.0379 22.4106 70.0034 25.5629C70.0034 22.8079 70.2145 19.8411 70.6367 17.404C69.4229 19.2583 67.6023 22.6225 66.3093 25.3775C65.2011 25.7748 62.8263 26.2517 60.6362 26.5695C62.7208 21.6424 67.7342 12.1589 72.3782 4.31788C73.6712 3.92053 75.7557 3.52318 77.5236 3.28477C76.9695 5.40397 76.0196 9.61589 75.1752 13.7748C75.8876 12.9007 80.0831 7.94702 82.4051 4.87417C83.6716 4.47682 86.6269 4.02649 88.6587 3.86755C87.4713 7.33775 83.3814 17.0596 79.8456 24.7682Z" fill="white"/>
<path d="M99.9257 6.03975C99.6091 6.75498 99.0814 7.76161 98.4481 9.00664C98.0259 9.1126 97.7093 9.19207 97.5773 9.24505C96.7066 11.0199 94.279 15.6821 92.2473 20.106C92.1153 20.1325 91.4293 20.3974 91.0335 20.3974C90.8224 20.3974 90.7168 20.3179 90.7432 20.1854C90.9015 18.8609 92.2736 15.5762 93.0388 14.1192C95.2289 9.88081 96.8121 6.78147 99.0814 3.62916C96.2844 3.5232 92.8278 4.18545 90.9279 5.16558C90.6377 5.74836 90.2683 6.41061 89.5294 7.92055C89.0809 8.10598 88.7378 8.23843 88.6059 8.34439C85.4395 14.2517 81.5079 23.3643 81.0594 25.7749C81.0066 26.1987 81.0066 26.1722 81.0066 26.2517C81.0066 28.2384 83.0647 29.6954 85.8353 29.6954C86.6269 29.6954 87.4449 29.5894 88.2893 29.404C92.8278 28.2914 94.1999 27.6556 95.3872 25.9603C97.4454 25.1391 98.6328 23.9205 99.5827 21.6689C102.142 15.7616 105.678 8.52982 108 4.37088C105.071 4.82121 101.694 5.53644 99.9257 6.03975ZM98.8439 21.3245C97.5773 24.2649 96.3108 25.0596 90.9807 26.3576C90.1363 26.5431 89.3183 26.649 88.5531 26.649C85.9673 26.649 84.0674 25.298 84.0674 23.4967C84.0674 23.2318 84.0674 23.1788 84.0938 23.0729C84.5688 20.6623 88.4476 11.6292 91.5348 5.80134C93.1708 5.03313 95.783 4.42386 97.5246 4.39737C96.0733 6.59604 93.5666 10.9139 92.3528 13.6689C91.957 14.5431 90.9807 16.4768 90.5057 17.8543C90.0308 19.2583 89.8725 19.9205 89.8725 20.4239C89.8725 20.9802 90.1363 21.3245 90.5321 21.298C92.5111 21.1391 93.8832 20.4239 94.3582 19.3113C96.4955 14.4901 99.4508 8.8477 100.506 6.702C101.984 6.27816 104.411 5.77485 106.417 5.43048C104.227 9.45697 100.849 16.5298 98.8439 21.3245Z" fill="white"/>
<path d="M13.9849 22.2251C18.4706 17.0596 25.5158 9.77481 30.7403 4.90063C22.5869 5.50991 14.7764 6.3311 12.3753 6.88739C11.7684 7.60262 11.1351 8.55626 10.2644 10.0662C10.106 10.0927 10.0005 10.1192 9.94772 10.1192C8.78671 11.4967 7.28268 14.0927 6.27999 16.3973C7.52016 16.0265 10.0533 15.6026 12.9558 15.2318C9.89494 18.6225 6.96604 22.1722 3.64134 26.543C1.92622 28.7947 0.52773 30.6755 0 31.4437C4.22184 31.2583 10.4227 30.4636 14.5654 29.5894C15.0403 29.0066 15.4889 28.3708 15.9638 27.6291C16.4652 27.5496 17.0985 27.4437 17.5998 27.3377C19.0511 25.5629 20.4495 23.1523 21.3731 20.8477C17.3887 21.6424 15.2514 22.0132 13.9849 22.2251ZM17.1512 26.596C16.2805 26.7549 9.73662 28.0265 3.27193 28.3708C6.38554 23.9735 12.0059 17.351 17.0721 12.0265C13.7474 12.4238 11.1087 12.8212 9.49915 13.2185C10.4491 11.1258 11.7948 8.87415 12.8502 7.60262C13.4571 7.49666 17.3887 6.72845 28.4974 5.88077C23.2729 10.8609 16.3596 18.1457 11.9267 23.3642C13.4043 23.1788 16.7554 22.596 20.0538 21.9602C19.4205 23.3642 18.2859 25.192 17.1512 26.596Z" fill="white"/>
<path d="M45.2001 13.5099C45.2793 12.9272 45.3057 12.7682 45.3057 12.5828C45.3057 11.4172 44.7515 10.8609 43.7225 10.9139C41.4268 11.0464 38.3924 13.9603 36.8092 17.5364C36.4926 18.2252 36.3079 19.0464 36.3079 19.8676C36.3079 21.5099 37.0467 22.5431 38.2341 22.5431C38.5771 22.5431 38.9465 22.4636 39.3423 22.3311L38.5243 18.9139C39.2632 17.5099 40.5825 16.159 41.8754 15.4967L42.7198 18.9404C44.1183 16.6623 44.9363 14.8874 45.2001 13.5099ZM37.6536 18.8344L37.68 18.9139C37.4425 19.0993 37.2842 19.2583 37.1522 19.4172C37.205 18.8874 37.3369 18.3841 37.6008 17.8543C38.1549 16.6358 39.0257 15.2053 39.9228 14.1457C40.3978 13.9868 40.7408 13.9338 41.1366 13.9338C41.6379 13.9338 41.981 14.1192 42.1657 14.5431C40.2395 15.3642 38.6299 16.9007 37.6536 18.8344Z" fill="white"/>
<path d="M48.2609 23.6556C48.1026 24.2119 47.997 24.8212 48.3665 25.4834C48.947 26.5165 50.5038 27.3377 52.6675 27.7616C52.9313 27.8146 53.1952 27.8411 53.4591 27.894C53.6438 27.9205 53.8549 27.947 54.0396 27.947L54.0923 18.3311C49.4219 20.5033 48.4456 22.9139 48.2609 23.6556ZM51.6648 20.5828L51.8495 26.8344C50.4246 26.4371 49.3955 25.8278 48.9997 25.1391C48.7886 24.7417 48.815 24.3709 48.947 23.8411C49.29 22.5695 50.4774 21.4305 51.6648 20.5828Z" fill="white"/>
<path d="M62.6416 6.49007C62.668 6.33113 62.668 6.19868 62.5888 6.09272C62.5097 5.96027 62.325 5.90729 62.1403 5.8808C60.003 6.01325 58.4462 8.76822 57.9976 10.0927C57.892 10.4901 57.8129 10.8874 57.7865 11.3378C59.9238 10.2252 62.1667 8.45034 62.6416 6.49007Z" fill="white"/>
</g>
<defs>
<clipPath id="clip0_25_32">
<rect width="108" height="40" fill="white"/>
</clipPath>
</defs>
</svg>
