<svg width="16" height="16" viewBox="0 0 16 16" fill="none" xmlns="http://www.w3.org/2000/svg">
<path fill-rule="evenodd" clip-rule="evenodd" d="M10.4418 10.442C10.5346 10.3491 10.6449 10.2753 10.7663 10.225C10.8877 10.1746 11.0178 10.1487 11.1493 10.1487C11.2807 10.1487 11.4108 10.1746 11.5322 10.225C11.6536 10.2753 11.7639 10.3491 11.8568 10.442L15.7068 14.292C15.8944 14.4795 15.9999 14.7339 16 14.9992C16.0001 15.2644 15.8948 15.5189 15.7073 15.7065C15.5198 15.8942 15.2654 15.9996 15.0001 15.9997C14.7348 15.9998 14.4804 15.8945 14.2928 15.707L10.4428 11.857C10.3498 11.7642 10.276 11.6539 10.2257 11.5325C10.1754 11.4111 10.1495 11.2809 10.1495 11.1495C10.1495 11.0181 10.1754 10.888 10.2257 10.7666C10.276 10.6452 10.3498 10.5349 10.4428 10.442H10.4418Z" fill="white"/>
<path fill-rule="evenodd" clip-rule="evenodd" d="M6.49976 12C7.22203 12 7.93722 11.8577 8.60452 11.5813C9.27181 11.3049 9.87812 10.8998 10.3888 10.3891C10.8996 9.87837 11.3047 9.27205 11.5811 8.60476C11.8575 7.93747 11.9998 7.22227 11.9998 6.5C11.9998 5.77773 11.8575 5.06253 11.5811 4.39524C11.3047 3.72795 10.8996 3.12163 10.3888 2.61091C9.87812 2.10019 9.27181 1.69506 8.60452 1.41866C7.93722 1.14226 7.22203 1 6.49976 1C5.04107 1 3.64212 1.57946 2.61067 2.61091C1.57922 3.64236 0.999756 5.04131 0.999756 6.5C0.999756 7.95869 1.57922 9.35764 2.61067 10.3891C3.64212 11.4205 5.04107 12 6.49976 12ZM12.9998 6.5C12.9998 8.22391 12.3149 9.87721 11.096 11.0962C9.87696 12.3152 8.22366 13 6.49976 13C4.77585 13 3.12255 12.3152 1.90356 11.0962C0.684575 9.87721 -0.000244141 8.22391 -0.000244141 6.5C-0.000244141 4.77609 0.684575 3.12279 1.90356 1.90381C3.12255 0.684819 4.77585 0 6.49976 0C8.22366 0 9.87696 0.684819 11.096 1.90381C12.3149 3.12279 12.9998 4.77609 12.9998 6.5Z" fill="white"/>
</svg>
