<svg width="16" height="16" viewBox="0 0 16 16" fill="none" xmlns="http://www.w3.org/2000/svg">
<path d="M14.1117 9.008L15.9999 10.608L14.3436 13.376L11.942 12.592C11.4119 13.024 10.8157 13.36 10.1531 13.6L9.65625 16H6.34363L5.84673 13.616C5.18421 13.376 4.58793 13.04 4.05791 12.608L1.65625 13.392L-6.10352e-05 10.624L1.88814 9.024C1.75563 8.224 1.75563 7.808 1.88814 7.008L-6.10352e-05 5.408L1.65625 2.64L4.05791 3.424C4.58793 2.992 5.18421 2.656 5.84673 2.416L6.34363 0H9.65625L10.1531 2.384C10.8157 2.624 11.4119 2.96 11.942 3.392L14.3436 2.608L15.9999 5.376L14.1117 6.976C14.2442 7.792 14.2442 8.208 14.1117 9.008ZM11.3126 8C11.3126 6.24 9.82189 4.8 7.99994 4.8C6.17799 4.8 4.68731 6.24 4.68731 8C4.68731 9.76 6.17799 11.2 7.99994 11.2C9.82189 11.2 11.3126 9.76 11.3126 8Z" fill="white"/>
</svg>
