<svg width="31" height="39" viewBox="0 0 31 39" fill="none" xmlns="http://www.w3.org/2000/svg">
<path d="M26.6201 7H4.37986C4.0139 7 3.66293 7.14538 3.40415 7.40415C3.14538 7.66293 3 8.0139 3 8.37986V30.6205C3.00009 30.9864 3.14551 31.3373 3.40427 31.596C3.66304 31.8547 4.01396 32 4.37986 32H16.3531V22.3187H13.0951V18.5458H16.3531V15.7632C16.3531 12.534 18.3253 10.776 21.2059 10.776C22.5858 10.776 23.7715 10.8785 24.1174 10.9247V14.2993L22.1194 14.3003C20.5528 14.3003 20.2497 15.0448 20.2497 16.1372V18.5462H23.9858L23.4993 22.3191H20.2497V32H26.6205C26.9864 31.9999 27.3373 31.8545 27.596 31.5957C27.8547 31.337 28 30.986 28 30.6201V8.37986C28 8.0139 27.8546 7.66293 27.5958 7.40415C27.3371 7.14538 26.9861 7 26.6201 7Z" fill="white"/>
</svg>
