<svg width="148" height="63" viewBox="0 0 148 63" fill="none" xmlns="http://www.w3.org/2000/svg">
<rect width="148" height="63" fill="#6E1C95"/>
<g style="mix-blend-mode:screen">
<path d="M54.8809 57H37.2477V63H54.8809V57Z" fill="#262327"/>
<path d="M54.8809 49.8751H37.2477V55.8751H54.8809V49.8751Z" fill="#262327"/>
<path d="M54.8809 42.7501H37.2477V48.7501H54.8809V42.7501Z" fill="#262327"/>
<path d="M54.8809 35.6249H37.2477V41.6249H54.8809V35.6249Z" fill="#262327"/>
<path d="M148 57H130.367V63H148V57Z" fill="#262327"/>
<path d="M148 49.8751H130.367V55.8751H148V49.8751Z" fill="#262327"/>
<path d="M148 42.7501H130.367V48.7501H148V42.7501Z" fill="#262327"/>
<path d="M148 35.6249H130.367V41.6249H148V35.6249Z" fill="#262327"/>
<path d="M148 28.4999H130.367V34.4999H148V28.4999Z" fill="#262327"/>
<path d="M148 21.375H130.367V27.375H148V21.375Z" fill="#262327"/>
<path d="M148 14.25H130.367V20.25H148V14.25Z" fill="#262327"/>
<path d="M148 7.125H130.367V13.125H148V7.125Z" fill="#262327"/>
<path d="M148 0H130.367V6H148V0Z" fill="#262327"/>
<path d="M92.1284 57H74.4952V63H92.1284V57Z" fill="#262327"/>
<path d="M92.1284 49.8751H74.4952V55.8751H92.1284V49.8751Z" fill="#262327"/>
<path d="M92.1284 42.7501H74.4952V48.7501H92.1284V42.7501Z" fill="#262327"/>
<path d="M92.1284 35.6249H74.4952V41.6249H92.1284V35.6249Z" fill="#262327"/>
<path d="M92.1284 28.4999H74.4952V34.4999H92.1284V28.4999Z" fill="#262327"/>
<path d="M92.1284 21.375H74.4952V27.375H92.1284V21.375Z" fill="#262327"/>
<path d="M92.1284 14.25H74.4952V20.25H92.1284V14.25Z" fill="#262327"/>
<path d="M36.257 57H18.6238V63H36.257V57Z" fill="#262327"/>
<path d="M36.257 49.8751H18.6238V55.8751H36.257V49.8751Z" fill="#262327"/>
<path d="M36.257 42.7501H18.6238V48.7501H36.257V42.7501Z" fill="#262327"/>
<path d="M36.257 35.6249H18.6238V41.6249H36.257V35.6249Z" fill="#262327"/>
<path d="M36.257 28.4999H18.6238V34.4999H36.257V28.4999Z" fill="#262327"/>
<path d="M36.257 21.375H18.6238V27.375H36.257V21.375Z" fill="#262327"/>
<path d="M36.257 14.25H18.6238V20.25H36.257V14.25Z" fill="#262327"/>
<path d="M129.376 57H111.743V63H129.376V57Z" fill="#262327"/>
<path d="M129.376 49.8751H111.743V55.8751H129.376V49.8751Z" fill="#262327"/>
<path d="M129.376 42.7501H111.743V48.7501H129.376V42.7501Z" fill="#262327"/>
<path d="M129.376 35.6249H111.743V41.6249H129.376V35.6249Z" fill="#262327"/>
<path d="M129.376 28.4999H111.743V34.4999H129.376V28.4999Z" fill="#262327"/>
<path d="M129.376 21.375H111.743V27.375H129.376V21.375Z" fill="#262327"/>
<path d="M73.5047 57H55.8715V63H73.5047V57Z" fill="#262327"/>
<path d="M73.5047 49.8751H55.8715V55.8751H73.5047V49.8751Z" fill="#262327"/>
<path d="M73.5047 42.7501H55.8715V48.7501H73.5047V42.7501Z" fill="#262327"/>
<path d="M73.5047 35.6249H55.8715V41.6249H73.5047V35.6249Z" fill="#262327"/>
<path d="M73.5047 28.4999H55.8715V34.4999H73.5047V28.4999Z" fill="#262327"/>
<path d="M110.752 57H93.119V63H110.752V57Z" fill="#262327"/>
<path d="M110.752 49.8751H93.119V55.8751H110.752V49.8751Z" fill="#262327"/>
<path d="M110.752 42.7501H93.119V48.7501H110.752V42.7501Z" fill="#262327"/>
<path d="M17.6332 57H0V63H17.6332V57Z" fill="#262327"/>
<path d="M17.6332 49.8751H0V55.8751H17.6332V49.8751Z" fill="#262327"/>
<path d="M17.6332 42.7501H0V48.7501H17.6332V42.7501Z" fill="#262327"/>
</g>
</svg>
