<svg width="31" height="39" viewBox="0 0 31 39" fill="none" xmlns="http://www.w3.org/2000/svg">
<path d="M21.7365 17.8863C21.7365 21.2832 18.9444 24.037 15.5003 24.037C12.0562 24.037 9.26424 21.2832 9.26424 17.8863C9.26424 16.9291 9.49236 16.0267 9.8875 15.2192H3V29.6027C3 30.9212 4.09375 32 5.43056 32H25.5694C26.9062 32 28 30.9212 28 29.6027V15.2192H21.1128C21.5225 16.0503 21.7357 16.9622 21.7365 17.8863Z" fill="white"/>
<path d="M25.5694 7H5.43056C4.09375 7 3 8.07877 3 9.39726V14.1918H10.5226C11.6608 12.7024 13.4635 11.7356 15.5 11.7356C17.5365 11.7356 19.3392 12.7024 20.4774 14.1918H28V9.39726C28 8.07877 26.9062 7 25.5694 7ZM4.99861 13.0671H4.09375V9.60993C4.09372 9.323 4.17962 9.04246 4.34066 8.8035C4.5017 8.56455 4.73071 8.37783 4.99896 8.26678V13.0671H4.99861ZM6.48125 13.0671H5.62396V8.15342H6.48125V13.0671ZM7.96354 13.0671H7.10625V8.15342H7.96354V13.0671ZM9.44479 9.60993V13.0671H8.58854V8.15342H9.44479V9.60993ZM26.733 11.6106C26.733 11.8018 26.6949 11.9912 26.6207 12.1679C26.5466 12.3446 26.4379 12.5051 26.3008 12.6404C26.1637 12.7756 26.001 12.8829 25.8219 12.9561C25.6428 13.0294 25.4508 13.0671 25.2569 13.0671H22.858C22.6641 13.0671 22.4721 13.0294 22.2929 12.9562C22.1138 12.883 21.951 12.7758 21.8139 12.6405C21.6768 12.5052 21.5681 12.3447 21.4939 12.168C21.4197 11.9913 21.3816 11.8019 21.3816 11.6106V9.60993C21.3816 9.41868 21.4197 9.22929 21.4939 9.05258C21.5681 8.87587 21.6768 8.7153 21.8139 8.58005C21.951 8.44479 22.1138 8.3375 22.2929 8.2643C22.4721 8.1911 22.6641 8.15342 22.858 8.15342H25.2569C25.4508 8.15342 25.6428 8.1911 25.822 8.26431C26.0011 8.33751 26.1638 8.44481 26.3009 8.58007C26.438 8.71533 26.5467 8.8759 26.6208 9.0526C26.695 9.22931 26.7331 9.41869 26.733 9.60993V11.6106Z" fill="white"/>
<path d="M15.5003 23.3178C18.5337 23.3178 20.9927 20.8914 20.9927 17.9004C20.9927 14.9089 18.534 12.4825 15.5003 12.4825C12.4663 12.4825 10.0073 14.9089 10.0073 17.9004C10.0073 20.8911 12.4663 23.3178 15.5003 23.3178ZM15.5 13.5839C17.9167 13.5839 19.8764 15.5164 19.8764 17.9004C19.8764 20.2839 17.917 22.2168 15.5 22.2168C13.083 22.2168 11.1236 20.2843 11.1236 17.9004C11.124 15.5161 13.0833 13.5839 15.5 13.5839Z" fill="white"/>
</svg>
