<svg width="31" height="39" viewBox="0 0 31 39" fill="none" xmlns="http://www.w3.org/2000/svg">
<path d="M15.5 7C8.59635 7 3 12.5964 3 19.5C3 26.4036 8.59635 32 15.5 32C22.4036 32 28 26.4036 28 19.5C28 12.5964 22.4036 7 15.5 7ZM16.3555 22.4622C15.5534 22.401 15.2174 22.0039 14.5898 21.6237C14.2448 23.4349 13.8229 25.1719 12.5729 26.0794C12.1862 23.3398 13.138 21.2852 13.5807 19.1016C12.8268 17.832 13.6706 15.2786 15.2617 15.9062C17.2188 16.6823 13.5664 20.6263 16.0182 21.1198C18.5781 21.6328 19.6237 16.6771 18.0365 15.0677C15.7422 12.7409 11.3607 15.0143 11.8997 18.3451C12.0299 19.1589 12.8724 19.4062 12.2357 20.5299C10.7682 20.2044 10.3294 19.0469 10.3867 17.5039C10.4766 14.9779 12.6563 13.2083 14.8411 12.9648C17.6055 12.6576 20.1992 13.9792 20.5586 16.5807C20.9609 19.5156 19.3099 22.6914 16.3555 22.4622Z" fill="white"/>
</svg>
