<svg width="16" height="16" viewBox="0 0 16 16" fill="none" xmlns="http://www.w3.org/2000/svg">
<path fill-rule="evenodd" clip-rule="evenodd" d="M8 15C9.85652 15 11.637 14.2625 12.9497 12.9497C14.2625 11.637 15 9.85652 15 8C15 6.14348 14.2625 4.36301 12.9497 3.05025C11.637 1.7375 9.85652 1 8 1C6.14348 1 4.36301 1.7375 3.05025 3.05025C1.7375 4.36301 1 6.14348 1 8C1 9.85652 1.7375 11.637 3.05025 12.9497C4.36301 14.2625 6.14348 15 8 15ZM8 16C10.1217 16 12.1566 15.1571 13.6569 13.6569C15.1571 12.1566 16 10.1217 16 8C16 5.87827 15.1571 3.84344 13.6569 2.34315C12.1566 0.842855 10.1217 0 8 0C5.87827 0 3.84344 0.842855 2.34315 2.34315C0.842855 3.84344 0 5.87827 0 8C0 10.1217 0.842855 12.1566 2.34315 13.6569C3.84344 15.1571 5.87827 16 8 16Z" fill="white"/>
<path fill-rule="evenodd" clip-rule="evenodd" d="M8.35399 11.354C8.40056 11.3076 8.4375 11.2524 8.46271 11.1917C8.48791 11.1309 8.50089 11.0658 8.50089 11C8.50089 10.9343 8.48791 10.8691 8.46271 10.8084C8.4375 10.7476 8.40056 10.6925 8.35399 10.646L5.70699 8.00002L8.35399 5.35402C8.40048 5.30753 8.43736 5.25234 8.46252 5.19161C8.48768 5.13087 8.50062 5.06577 8.50062 5.00002C8.50062 4.93428 8.48768 4.86918 8.46252 4.80844C8.43736 4.7477 8.40048 4.69251 8.35399 4.64602C8.30751 4.59953 8.25232 4.56266 8.19158 4.5375C8.13084 4.51234 8.06574 4.49939 7.99999 4.49939C7.93425 4.49939 7.86915 4.51234 7.80841 4.5375C7.74767 4.56266 7.69248 4.59953 7.64599 4.64602L4.64599 7.64602C4.59943 7.69247 4.56249 7.74764 4.53728 7.80839C4.51207 7.86913 4.4991 7.93425 4.4991 8.00002C4.4991 8.06579 4.51207 8.13091 4.53728 8.19165C4.56249 8.2524 4.59943 8.30758 4.64599 8.35402L7.64599 11.354C7.69244 11.4006 7.74761 11.4375 7.80836 11.4627C7.8691 11.4879 7.93423 11.5009 7.99999 11.5009C8.06576 11.5009 8.13088 11.4879 8.19163 11.4627C8.25237 11.4375 8.30755 11.4006 8.35399 11.354Z" fill="white"/>
<path fill-rule="evenodd" clip-rule="evenodd" d="M11.5 8C11.5 7.86739 11.4473 7.74021 11.3536 7.64645C11.2598 7.55268 11.1326 7.5 11 7.5H6C5.86739 7.5 5.74021 7.55268 5.64645 7.64645C5.55268 7.74021 5.5 7.86739 5.5 8C5.5 8.13261 5.55268 8.25979 5.64645 8.35355C5.74021 8.44732 5.86739 8.5 6 8.5H11C11.1326 8.5 11.2598 8.44732 11.3536 8.35355C11.4473 8.25979 11.5 8.13261 11.5 8Z" fill="white"/>
</svg>
