<svg width="30" height="30" viewBox="0 0 30 30" fill="none" xmlns="http://www.w3.org/2000/svg">
<g clip-path="url(#clip0_117_152)">
<path d="M22.0001 22.3333H20.5001C19.5001 21.1667 16.5001 18.1667 15.3334 17L13.6667 18.8333C15.5498 20.6204 17.3304 22.5122 19.0001 24.5L19.3334 24.8333H21.8334V30L23.0001 29L29.8334 24L21.8334 17.8333V22.3333H22.0001Z" fill="white"/>
<path d="M22 4.66667H19.6667L2.66668 22.6667H0V25.1667H3.83334L20.8333 7.16667H22V12L23.1667 11L30 6.16666L22 0V4.66667Z" fill="white"/>
<path d="M7.83333 12.5001L9.49999 10.6667C7.61699 8.87974 5.83638 6.98783 4.16667 5.00008L3.83334 4.66675H0V7.16675H2.66668C3.83334 8.33341 6.66666 11.5001 7.83333 12.5001Z" fill="white"/>
</g>
<defs>
<clipPath id="clip0_117_152">
<rect width="30" height="30" fill="white"/>
</clipPath>
</defs>
</svg>
